<svg width="213" height="60" viewBox="0 0 213 60" fill="none" xmlns="http://www.w3.org/2000/svg">
<path d="M24.9891 41.9194H20.7867V31.3934C20.7867 30.1565 20.4992 29.2151 19.9242 28.5741C19.3492 27.9331 18.6448 27.6126 17.811 27.6126C17.1689 27.6126 16.5604 27.7178 15.9853 27.9331C15.4103 28.1435 14.8545 28.494 14.3082 28.9847C14.4807 29.6958 14.5718 30.502 14.5718 31.3934V41.9194H10.3694V31.3934C10.3694 30.1565 10.0819 29.2151 9.50687 28.5741C8.93186 27.9331 8.23705 27.6126 7.41766 27.6126C6.77556 27.6126 6.21013 27.7328 5.72616 27.9632C5.2374 28.1985 4.73427 28.5691 4.20717 29.0799V41.9244H0V24.2826H4.20238L4.20717 25.5946C4.73427 25.0688 5.35241 24.6381 6.06159 24.3126C6.77077 23.9871 7.49912 23.8219 8.23705 23.8219C9.05645 23.8219 9.88063 24.0172 10.7048 24.4028C11.5338 24.7884 12.2573 25.3492 12.8803 26.0853C13.7572 25.2741 14.6436 24.6882 15.5397 24.3427C16.4358 23.9972 17.4181 23.8219 18.4914 23.8219C19.3683 23.8219 20.2021 23.9571 20.988 24.2325C21.7786 24.5079 22.4638 24.9436 23.0484 25.5445C23.633 26.1454 24.1026 26.9066 24.4524 27.833C24.8022 28.7594 24.9795 29.8711 24.9795 31.1731V41.9194H24.9891Z" fill="#FF3366"/>
<path d="M43.4949 24.2526L35.9047 45.2144C35.3393 46.7817 34.6014 47.9084 33.6861 48.5995C32.7709 49.2905 31.6832 49.6361 30.4182 49.6361C30.2217 49.6361 30.0109 49.621 29.7761 49.591C29.5413 49.5559 29.3208 49.5109 29.1052 49.4508L27.7012 45.3646C28.0319 45.5248 28.3721 45.655 28.7219 45.7452C29.0717 45.8403 29.4023 45.8804 29.7138 45.8804C30.375 45.8804 30.9788 45.7251 31.5251 45.4097C32.0713 45.0942 32.4882 44.5083 32.7805 43.657L33.3651 41.8893L26.8579 24.2526H31.4388L35.3201 35.5998L38.9667 24.2526H43.4949Z" fill="#FF3366"/>
<path d="M54.7939 41.5187C54.3674 41.8042 53.8691 42.0195 53.3036 42.1597C52.7382 42.3049 52.1776 42.3751 51.6122 42.3751C50.6203 42.3751 49.7817 42.2499 49.1013 41.9945C48.4208 41.7391 47.8746 41.3485 47.4673 40.8227C47.06 40.2919 46.7629 39.6209 46.576 38.8096C46.3891 37.9934 46.2981 37.042 46.2981 35.9403V28.2186H44.0795V26.2356C45.4404 25.6447 46.5473 24.7683 47.3954 23.6116C48.2435 22.4498 48.8186 20.9475 49.13 19.0947H50.5005V24.2475H54.7603V28.2136H50.5005V36.2357C50.5005 36.6814 50.5532 37.047 50.6634 37.3324C50.7688 37.6178 50.9126 37.8382 51.0851 38.0034C51.2576 38.1637 51.4588 38.2788 51.684 38.3389C51.9092 38.399 52.1488 38.4341 52.398 38.4341C52.7286 38.4341 53.1264 38.374 53.5959 38.2488C54.0607 38.1286 54.4633 37.9233 54.7939 37.6379V41.5187Z" fill="#FF3366"/>
<path d="M74.7037 33.101C74.7037 34.423 74.4689 35.6498 74.0041 36.7766C73.5345 37.9033 72.8924 38.8797 72.0778 39.706C71.2632 40.5323 70.3001 41.1832 69.2027 41.659C68.1054 42.1397 66.9314 42.3751 65.6856 42.3751C64.4397 42.3751 63.2705 42.1347 62.1828 41.659C61.0903 41.1832 60.1367 40.5272 59.3221 39.691C58.5027 38.8597 57.8606 37.8732 57.3958 36.7465C56.9262 35.6148 56.6962 34.403 56.6962 33.101C56.6962 31.819 56.9358 30.6122 57.4102 29.4855C57.8846 28.3588 58.5363 27.3723 59.3509 26.526C60.1703 25.6797 61.1238 25.0187 62.2115 24.543C63.2993 24.0673 64.4589 23.8269 65.6856 23.8269C66.9314 23.8269 68.1054 24.0673 69.2027 24.543C70.3001 25.0187 71.2632 25.6697 72.0778 26.496C72.8972 27.3222 73.5393 28.3037 74.0041 29.4404C74.4689 30.5822 74.7037 31.799 74.7037 33.101ZM70.4965 33.101C70.4965 32.3498 70.3719 31.6488 70.118 30.9978C69.864 30.3468 69.5238 29.7759 69.0829 29.2852C68.6469 28.7995 68.139 28.4189 67.5544 28.1435C66.9746 27.868 66.3516 27.7328 65.6904 27.7328C65.0291 27.7328 64.411 27.868 63.8264 28.1435C63.2466 28.4189 62.7338 28.7995 62.2978 29.2852C61.8617 29.7759 61.5167 30.3418 61.2628 30.9978C61.0088 31.6488 60.8842 32.3498 60.8842 33.101C60.8842 33.8521 61.0136 34.5532 61.2628 35.2042C61.5119 35.8552 61.857 36.426 62.2978 36.9168C62.7338 37.4025 63.2418 37.7831 63.8264 38.0585C64.411 38.3339 65.0291 38.4691 65.6904 38.4691C66.3516 38.4691 66.9698 38.3339 67.5544 38.0585C68.1342 37.7831 68.6469 37.4025 69.0829 36.9168C69.519 36.426 69.864 35.8602 70.118 35.2042C70.3719 34.5582 70.4965 33.8521 70.4965 33.101Z" fill="#FF3366"/>
<path d="M92.2751 41.9194H88.0727V40.5773C87.7996 40.8628 87.4833 41.1131 87.124 41.3285C86.7646 41.5438 86.386 41.7241 85.9835 41.8743C85.5858 42.0295 85.1737 42.1447 84.7568 42.2248C84.3399 42.3049 83.9422 42.35 83.5733 42.35C82.7155 42.35 81.8961 42.2098 81.1055 41.9244C80.3196 41.6389 79.62 41.2033 79.0163 40.6124C78.4125 40.0215 77.9286 39.2603 77.574 38.3239C77.2146 37.3875 77.0325 36.2808 77.0325 34.9989V24.2826H81.2349V34.7785C81.2349 35.4095 81.3259 35.9653 81.5128 36.441C81.6949 36.9218 81.9393 37.3174 82.2411 37.6329C82.543 37.9483 82.8928 38.1787 83.2905 38.3339C83.6883 38.4841 84.1004 38.5593 84.5316 38.5593C85.8925 38.5593 87.0713 38.0735 88.0631 37.097V24.2826H92.2655V41.9194H92.2751Z" fill="#FF3366"/>
<path d="M107.891 26.1154L105.644 29.836C105.237 29.3703 104.782 28.9597 104.288 28.6042C103.79 28.2486 103.291 28.0683 102.783 28.0683C102.51 28.0683 102.213 28.1334 101.892 28.2686C101.571 28.4039 101.269 28.6192 100.987 28.9246C100.704 29.2301 100.464 29.6307 100.273 30.1315C100.076 30.6322 99.9803 31.2432 99.9803 31.9793V41.9244H95.7779V24.2826H99.9803V26.1755C100.483 25.4243 101.044 24.8435 101.657 24.4378C102.271 24.0322 102.956 23.8269 103.718 23.8269C104.456 23.8269 105.184 24.0372 105.893 24.4529C106.603 24.8685 107.269 25.4243 107.891 26.1154Z" fill="#FF3366"/>
<path d="M161.998 17.8284C163.112 15.1111 164.292 12.1572 164.714 11.0546C166.455 6.5826 166.872 4.58258 166.292 3.72746C166.048 3.36893 165.624 3.19743 165.048 3.23975C163.925 3.32237 163.112 3.93241 160.425 6.59165C156.891 10.182 154.969 12.3217 149.836 18.7808C142.892 27.4004 140.788 30.1326 137.915 34.1377C136.099 36.646 134.739 38.5416 134.052 39.403C134.357 37.3534 135.526 31.3305 136.952 25.0281C139.52 13.5447 139.381 11.0354 139.045 10.1333C138.854 9.74196 138.436 9.25143 138.013 9.10874C137.36 8.80926 137.115 8.85621 136.485 9.30805C134.53 10.5523 128.498 21.7113 121.081 37.7215C116.678 47.2837 114.657 52.5004 115.038 53.2544C115.164 53.5057 115.448 53.6296 115.777 53.6055C116.16 53.5772 116.67 53.366 116.86 52.9176L116.911 52.856L116.905 52.7695C119.388 46.6211 120.778 43.507 122.439 39.9096C125.424 33.4635 131.462 21.1458 133.232 17.9458C134.481 15.6239 136.072 13.0453 136.802 12.007C136.757 12.9949 136.537 15.0673 136.178 17.1209C135.979 18.265 135.25 21.7939 134.523 24.9461C133.27 30.5407 131.603 39.8437 131.686 41.083C131.743 41.9476 132.453 42.6773 133.165 42.6249C133.604 42.5927 134.485 42.1803 136.963 38.8703C143.401 30.0853 152.951 18.0015 157.351 12.9573C159.602 10.3591 163.081 6.77284 164.197 5.76396C163.875 7.11989 162.152 11.4458 160.333 15.9815C154.259 31.0533 150.968 40.3599 149.033 48.1188C147.317 55.0218 147.203 56.6229 147.593 57.1155C147.838 57.474 148.203 57.5919 148.56 57.5657C148.751 57.5516 148.939 57.4799 149.1 57.4101C149.55 57.1453 149.737 56.6393 149.54 56.1614C149.267 55.3706 151.775 45.05 155.206 35.3566C155.87 33.3385 160.223 22.1872 161.998 17.8284Z" fill="#FF3366"/>
<path d="M210.91 29.1458C210.672 28.8737 210.093 28.8584 209.417 29.4583C208.405 30.4015 206.696 32.0331 204.911 33.7572C200.39 38.2311 199.209 39.0999 196.919 40.2819C195.989 40.7847 195.364 40.9175 194.94 40.746C194.6 40.5973 194.35 40.1523 194.134 39.3863C193.884 38.5358 194.107 35.6813 194.527 34.1155C194.721 33.3193 195.047 32.832 196.779 31.1407C200.736 27.2876 204.297 22.4499 206.327 18.1883C207.654 15.3684 208.057 13.5722 207.552 12.5957C207.329 12.1487 206.897 11.8619 206.342 11.787L205.876 11.8212C205.136 11.8756 204.397 12.3644 203.208 13.5234L203.157 13.585L203.116 13.7908C199.655 17.231 195.174 24.8006 193.062 30.7191C192.321 32.8297 192.293 32.8318 190.83 34.0109C187.072 37.1254 182.477 39.6643 180.968 38.5011C180.331 38.0267 180.093 36.9436 180.324 35.4496C180.603 33.4309 181.377 31.4047 181.638 31.1828C185.947 29.7364 191.863 23.0458 192.75 18.5786C193.042 17.1671 192.595 15.8388 191.756 15.6399C190.185 15.2051 188.748 15.948 186.537 18.3116C183.603 21.3944 180.54 26.6877 179.105 31.1952C179.038 31.4318 178.97 31.6396 178.903 31.8762C178.797 31.9419 178.693 32.0365 178.589 32.131L178.225 32.4474L178.366 32.4949C178.027 32.7805 177.611 33.1586 177.145 33.5983L176.704 34.0073C173.886 36.763 172.015 38.0301 170.49 38.287C169.672 38.4051 169.611 38.3227 169.434 38.133C169.068 37.6097 169.262 36.3791 169.979 34.7336C170.483 33.6249 170.695 33.088 170.197 32.6324C169.522 32.0159 169.027 32.4288 168.406 33.0247L168.018 33.4008L167.799 33.0114C167.299 32.1215 166.415 31.6652 165.347 31.7438C164.552 31.8022 163.614 32.1898 162.693 32.8367C160.272 34.5207 158.332 37.6463 158.464 39.6348C158.508 40.2977 158.789 40.7983 159.274 41.0522C160.674 41.8181 162.946 40.7822 166.007 37.9506L167.149 36.9109L167.192 37.545C167.266 38.6689 167.37 38.9799 168.267 39.6379C169.829 40.7683 171.648 40.3739 174.596 38.3326C175.568 37.624 176.949 36.4509 178.137 35.263C177.883 37.6564 178.481 39.2052 180.026 40.0763C180.656 40.4354 181.29 40.4467 182.715 40.3419C184.414 40.217 184.874 40.0962 186.443 39.2569C187.455 38.748 189.042 37.7625 190.039 37.0231C190.405 36.7355 190.774 36.4767 191.062 36.2528C191.324 36.0597 191.561 35.8975 191.718 35.7701C191.766 36.0851 191.834 36.6883 191.846 37.701C191.901 40.593 192.326 41.6044 193.805 42.3065C194.258 42.5048 194.787 42.5818 195.362 42.5395C196.842 42.4307 198.735 41.5094 201.151 39.739C202.857 38.484 204.566 36.8524 208.223 33.0503C208.866 32.3659 209.352 31.8088 209.762 31.3443C210.068 30.9743 210.325 30.6947 210.532 30.5057C211.307 29.7248 211.027 29.253 210.91 29.1458ZM205.74 13.9164C205.618 14.5625 205.087 16.1075 204.215 17.9092C203.169 19.9844 200.687 23.6422 198.826 25.8931C198.011 26.8799 196.854 28.1233 196.284 28.6576C196.233 28.7193 196.155 28.7829 196.076 28.8466C196.288 28.3097 196.65 27.5302 196.987 26.8103C198.887 22.674 202.257 17.445 204.625 14.9541C205.113 14.4259 205.477 14.1094 205.74 13.9164ZM182.37 28.5225C182.898 27.3542 184.554 24.1047 185.25 22.9819C187.198 19.9716 189.719 17.2957 190.637 17.0254C190.689 17.398 190.468 18.6306 189.985 19.6508L189.962 19.7104L189.971 19.8545C188.721 22.5819 186.276 25.5709 183.761 27.4935C183.396 27.8099 182.765 28.2617 182.37 28.5225ZM165.225 36.1257L165.082 36.0494L164.953 36.1747C164.124 36.9597 162.815 37.9827 162.135 38.525C161.293 39.1082 160.791 39.4347 160.574 39.4797C160.57 39.422 160.564 39.3356 160.582 39.1895C160.916 37.1667 164.267 33.7345 165.665 33.6318L165.692 33.6297C165.747 33.6257 165.831 33.6485 165.833 33.6773L165.89 33.7021C165.948 33.7557 166.134 34.0606 166.298 34.454C166.497 34.9607 166.499 34.9895 165.225 36.1257Z" fill="#FF3366"/>
<rect x="107.691" y="35.4004" width="6.37643" height="6.75" rx="3.18821" fill="#FF3366"/>
</svg>
