<?xml version="1.0" encoding="utf-8"?>
<!-- Generator: Adobe Illustrator 25.0.0, SVG Export Plug-In . SVG Version: 6.00 Build 0)  -->
<svg version="1.1" id="Layer_1" xmlns="http://www.w3.org/2000/svg" xmlns:xlink="http://www.w3.org/1999/xlink" x="0px" y="0px"
	 viewBox="0 0 89 107" style="enable-background:new 0 0 89 107;" xml:space="preserve">
<style type="text/css">
	.st0{fill:url(#SVGID_1_);}
	.st1{fill:#FFFFFF;}
	.st2{opacity:0.5;fill:url(#SVGID_2_);enable-background:new    ;}
	.st3{clip-path:url(#SVGID_4_);}
	.st4{fill-rule:evenodd;clip-rule:evenodd;fill:#FFFFFF;}
</style>
<linearGradient id="SVGID_1_" gradientUnits="userSpaceOnUse" x1="44.5" y1="396.1296" x2="44.5" y2="486.6111" gradientTransform="matrix(1 0 0 1 0 -392)">
	<stop  offset="0" style="stop-color:#FF3366"/>
	<stop  offset="1" style="stop-color:#FF33AD"/>
</linearGradient>
<path class="st0" d="M8,0h73c4.4,0,8,3.6,8,8v91c0,4.4-3.6,8-8,8H8c-4.4,0-8-3.6-8-8V8C0,3.6,3.6,0,8,0z"/>
<path class="st1" d="M7.7,15H9V9h2V8H5.6v1h2.1V15z"/>
<path class="st1" d="M10.9,15h1.2v-3c0-0.7,0.4-1.2,1.1-1.2c0.2,0,0.4,0,0.5,0.1V9.8c-0.1,0-0.2,0-0.4,0c-0.6,0-1.1,0.4-1.2,1l0,0
	v-1h-1.2C10.9,9.8,10.9,15,10.9,15z"/>
<path class="st1" d="M15.8,15.1c0.7,0,1.3-0.3,1.6-0.9l0,0V15h1.2v-3.6c0-1-0.8-1.7-2.1-1.7s-2.1,0.7-2.2,1.6v0.1h1.1l0,0
	c0.1-0.4,0.4-0.6,1-0.6c0.6,0,1,0.3,1,0.8V12H16c-1.3,0.1-2,0.6-2,1.5l0,0C14.1,14.4,14.7,15.1,15.8,15.1z M15.3,13.5L15.3,13.5
	c0-0.4,0.3-0.7,0.9-0.7l1.2-0.1v0.4c0,0.6-0.5,1.1-1.2,1.1C15.6,14.2,15.3,13.9,15.3,13.5z"/>
<path class="st1" d="M20.9,15h1.3L24,9.8h-1.3l-1.2,4l0,0l-1.2-4H19L20.9,15z"/>
<path class="st1" d="M26.8,15.1c1.4,0,2.1-0.8,2.3-1.6v-0.1H28l0,0c-0.1,0.3-0.5,0.7-1.1,0.7c-0.8,0-1.3-0.5-1.3-1.4h3.6v-0.4
	c0-1.6-0.9-2.6-2.4-2.6s-2.4,1.1-2.4,2.7l0,0C24.3,14.1,25.2,15.1,26.8,15.1z M26.7,10.7c0.6,0,1.1,0.4,1.2,1.2h-2.4
	C25.6,11.1,26.1,10.7,26.7,10.7z"/>
<path class="st1" d="M29.9,15h1.2V8h-1.2V15z"/>
<path class="st1" d="M32.2,15h1.2V8h-1.2V15z"/>
<path class="st1" d="M36.7,15.1c1.4,0,2.1-0.8,2.3-1.6v-0.1h-1.1l0,0c-0.1,0.3-0.5,0.7-1.1,0.7c-0.8,0-1.3-0.5-1.3-1.4h3.6v-0.4
	c0-1.6-0.9-2.6-2.4-2.6s-2.4,1.1-2.4,2.7l0,0C34.2,14.1,35.2,15.1,36.7,15.1z M36.7,10.7c0.6,0,1.1,0.4,1.2,1.2h-2.4
	C35.6,11.1,36,10.7,36.7,10.7z"/>
<path class="st1" d="M39.9,15h1.2v-3c0-0.7,0.4-1.2,1.1-1.2c0.2,0,0.4,0,0.5,0.1V9.8c-0.1,0-0.2,0-0.4,0c-0.6,0-1.1,0.4-1.2,1l0,0
	v-1h-1.2C39.9,9.8,39.9,15,39.9,15z"/>
<path class="st1" d="M45.3,15.1c1.3,0,2.2-0.7,2.2-1.6l0,0c0-0.8-0.4-1.2-1.5-1.4l-0.9-0.2c-0.5-0.1-0.7-0.3-0.7-0.6l0,0
	c0-0.4,0.3-0.6,0.9-0.6c0.6,0,0.9,0.3,1,0.7l0,0h1.1v-0.1c0-0.9-0.8-1.6-2.1-1.6c-1.2,0-2.1,0.6-2.1,1.6l0,0c0,0.8,0.5,1.2,1.5,1.5
	l0.9,0.2c0.5,0.1,0.7,0.3,0.7,0.6l0,0c0,0.4-0.4,0.6-0.9,0.6c-0.6,0-1-0.3-1-0.7l0,0h-1.2l0,0C43.2,14.5,44,15.1,45.3,15.1z"/>
<path class="st1" d="M48.7,10.6h0.9l0-2.6h-1.1L48.7,10.6z"/>
<path class="st1" d="M56.1,15.1c1.6,0,2.8-1,3-2.4l0,0h-1.2l0,0C57.6,13.5,57,14,56.1,14c-1.2,0-2-1-2-2.6l0,0c0-1.6,0.8-2.5,2-2.5
	c0.9,0,1.5,0.5,1.7,1.3v0.1H59l0,0c-0.2-1.4-1.4-2.4-3-2.4c-2,0-3.3,1.4-3.3,3.6l0,0C52.8,13.7,54.1,15.1,56.1,15.1z"/>
<path class="st1" d="M60,15h1.2v-3c0-0.8,0.4-1.3,1.1-1.3c0.7,0,1.1,0.5,1.1,1.3v3h1.2v-3.2c0-1.2-0.7-2.1-1.8-2.1
	c-0.8,0-1.3,0.4-1.6,1l0,0V8H60V15z"/>
<path class="st1" d="M67.9,15.1c1.5,0,2.5-1,2.5-2.7l0,0c0-1.7-1-2.7-2.5-2.7s-2.5,1-2.5,2.7l0,0C65.4,14.1,66.4,15.1,67.9,15.1z
	 M67.9,14.1c-0.8,0-1.3-0.6-1.3-1.7l0,0c0-1.1,0.5-1.7,1.3-1.7s1.3,0.6,1.3,1.7l0,0C69.2,13.5,68.7,14.1,67.9,14.1z"/>
<path class="st1" d="M71.8,9.1c0.4,0,0.7-0.3,0.7-0.7s-0.3-0.7-0.7-0.7c-0.4,0-0.7,0.3-0.7,0.7C71.2,8.8,71.5,9.1,71.8,9.1z
	 M71.2,15h1.2V9.8h-1.2V15z"/>
<path class="st1" d="M75.8,15.1c1.3,0,2.2-0.8,2.3-1.9l0,0H77l0,0c-0.1,0.5-0.5,0.9-1.1,0.9c-0.8,0-1.3-0.6-1.3-1.7l0,0
	c0-1.1,0.5-1.7,1.3-1.7c0.6,0,1,0.4,1.1,0.9l0,0h1l0,0c-0.1-1-0.9-1.9-2.3-1.9c-1.5,0-2.5,1-2.5,2.7l0,0
	C73.3,14.1,74.2,15.1,75.8,15.1z"/>
<path class="st1" d="M81.1,15.1c1.4,0,2.1-0.8,2.3-1.6v-0.1h-1.1l0,0c-0.1,0.3-0.5,0.7-1.1,0.7c-0.8,0-1.3-0.5-1.3-1.4h3.6v-0.4
	c0-1.6-0.9-2.6-2.4-2.6s-2.4,1.1-2.4,2.7l0,0C78.6,14.1,79.5,15.1,81.1,15.1z M81,10.7c0.6,0,1.1,0.4,1.2,1.2h-2.4
	C79.9,11.1,80.4,10.7,81,10.7z"/>
<linearGradient id="SVGID_2_" gradientUnits="userSpaceOnUse" x1="44.5" y1="409.9" x2="44.5" y2="469.7" gradientTransform="matrix(1 0 0 1 0 -392)">
	<stop  offset="0" style="stop-color:#BD2047;stop-opacity:0"/>
	<stop  offset="1" style="stop-color:#BD2047"/>
</linearGradient>
<ellipse class="st2" cx="44.5" cy="47.8" rx="29.9" ry="29.9"/>
<g>
	<g>
		<defs>
			<rect id="SVGID_3_" x="9.8" y="21.8" width="69.5" height="57.9"/>
		</defs>
		<clipPath id="SVGID_4_">
			<use xlink:href="#SVGID_3_"  style="overflow:visible;"/>
		</clipPath>
		<g class="st3">
			<path class="st1" d="M39.7,73.8c1.5,1.2,1.9,3.2,1.9,3.2s-2.1,0.1-3.6-1.2c-1.5-1.2-1.9-3.2-1.9-3.2S38.2,72.6,39.7,73.8z"/>
			<path class="st1" d="M37.8,77c1.9-0.7,3.8,0.1,3.8,0.1s-1.1,1.8-2.9,2.4c-1.9,0.7-3.8-0.1-3.8-0.1S36,77.6,37.8,77z"/>
			<path class="st1" d="M33.7,72.2c1.4,1.4,1.5,3.4,1.5,3.4s-2.1-0.2-3.4-1.6s-1.5-3.4-1.5-3.4S32.4,70.8,33.7,72.2z"/>
			<path class="st1" d="M31.4,75.1c1.9-0.4,3.8,0.6,3.8,0.6s-1.3,1.6-3.2,2C30,78,28.2,77,28.2,77S29.5,75.4,31.4,75.1z"/>
			<path class="st1" d="M29,69.9c1.1,1.6,0.9,3.6,0.9,3.6s-2-0.6-3.1-2.1c-1.1-1.6-0.9-3.6-0.9-3.6S27.9,68.3,29,69.9z"/>
			<path class="st1" d="M26.3,72.3c2-0.1,3.6,1.2,3.6,1.2s-1.5,1.4-3.5,1.5s-3.6-1.2-3.6-1.2S24.3,72.4,26.3,72.3z"/>
			<path class="st1" d="M24.6,66.4c0.7,1.8,0,3.7,0,3.7s-1.8-1-2.5-2.8s0-3.7,0-3.7S23.9,64.6,24.6,66.4z"/>
			<path class="st1" d="M21.3,68.1c1.9,0.4,3.2,2,3.2,2s-1.8,1-3.8,0.6c-1.9-0.4-3.2-2-3.2-2S19.4,67.7,21.3,68.1z"/>
			<path class="st1" d="M21.2,62.3c0.2,1.9-0.9,3.6-0.9,3.6s-1.5-1.4-1.7-3.3c-0.2-1.9,0.9-3.6,0.9-3.6S21,60.4,21.2,62.3z"/>
			<path class="st1" d="M17.7,63.2c1.8,0.8,2.6,2.7,2.6,2.7s-2,0.5-3.8-0.3s-2.6-2.7-2.6-2.7S15.9,62.4,17.7,63.2z"/>
			<path class="st1" d="M18.4,57.1c-0.2,1.9-1.6,3.4-1.6,3.4s-1.2-1.7-1-3.6c0.2-1.9,1.6-3.4,1.6-3.4S18.6,55.2,18.4,57.1z"/>
			<path class="st1" d="M14.7,57.3c1.6,1.2,2.1,3.1,2.1,3.1s-2.1,0.1-3.7-1c-1.6-1.2-2.1-3.1-2.1-3.1S13.1,56.2,14.7,57.3z"/>
			<path class="st1" d="M16.9,52.2c-0.5,1.9-2.2,3.1-2.2,3.1s-0.9-1.8-0.5-3.7c0.5-1.9,2.2-3.1,2.2-3.1S17.4,50.3,16.9,52.2z"/>
			<path class="st1" d="M13.2,51.8c1.4,1.4,1.5,3.4,1.5,3.4s-2.1-0.2-3.5-1.6c-1.4-1.4-1.5-3.4-1.5-3.4S11.9,50.5,13.2,51.8z"/>
			<path class="st1" d="M16.8,46.7c-0.9,1.7-2.8,2.5-2.8,2.5s-0.4-2,0.5-3.7s2.8-2.5,2.8-2.5S17.7,45,16.8,46.7z"/>
			<path class="st1" d="M13.3,45.5c1,1.7,0.6,3.7,0.6,3.7s-2-0.7-2.9-2.4c-1-1.7-0.6-3.7-0.6-3.7S12.3,43.8,13.3,45.5z"/>
			<path class="st1" d="M17.7,41.2c-1.3,1.5-3.4,1.8-3.4,1.8s0.1-2,1.4-3.5s3.4-1.8,3.4-1.8S19,39.7,17.7,41.2z"/>
			<path class="st1" d="M14.7,39.2c0.6,1.9-0.3,3.7-0.3,3.7s-1.7-1.1-2.3-3s0.3-3.7,0.3-3.7S14.1,37.4,14.7,39.2z"/>
			<path class="st1" d="M19.8,36.6c-1.6,1.1-3.7,1-3.7,1s0.5-2,2.1-3.1s3.7-1,3.7-1S21.4,35.5,19.8,36.6z"/>
			<path class="st1" d="M17.2,34c0.1,1.9-1.1,3.6-1.1,3.6s-1.4-1.5-1.5-3.4s1.1-3.6,1.1-3.6S17.1,32.1,17.2,34z"/>
			<path class="st1" d="M22.3,32.5c-1.8,0.9-3.8,0.4-3.8,0.4s0.8-1.9,2.6-2.7c1.8-0.9,3.8-0.4,3.8-0.4S24,31.7,22.3,32.5z"/>
			<path class="st1" d="M20.2,29.6c-0.2,1.9-1.7,3.3-1.7,3.3s-1.2-1.7-1-3.6s1.7-3.3,1.7-3.3S20.4,27.6,20.2,29.6z"/>
			<path class="st1" d="M50.4,73.6c-1.5,1.2-1.9,3.2-1.9,3.2s2.1,0,3.6-1.2s1.9-3.2,1.9-3.2S51.9,72.4,50.4,73.6z"/>
			<path class="st1" d="M52.3,76.7c-1.9-0.7-3.8,0.1-3.8,0.1s1.1,1.8,2.9,2.4c1.9,0.7,3.8-0.1,3.8-0.1S54.1,77.3,52.3,76.7z"/>
			<path class="st1" d="M55.6,72.2c-1.4,1.4-1.5,3.4-1.5,3.4s2.1-0.2,3.4-1.6c1.4-1.4,1.5-3.4,1.5-3.4S57,70.8,55.6,72.2z"/>
			<path class="st1" d="M57.9,75.1c-1.9-0.4-3.8,0.6-3.8,0.6s1.3,1.6,3.2,2s3.8-0.6,3.8-0.6S59.8,75.4,57.9,75.1z"/>
			<path class="st1" d="M60.3,69.7c-1.1,1.6-0.9,3.6-0.9,3.6s2-0.6,3.1-2.1c1.1-1.6,0.9-3.6,0.9-3.6S61.5,68.1,60.3,69.7z"/>
			<path class="st1" d="M63.1,72.2c-2-0.1-3.6,1.2-3.6,1.2s1.5,1.4,3.5,1.5s3.6-1.2,3.6-1.2S65,72.2,63.1,72.2z"/>
			<path class="st1" d="M64.6,66.3c-0.7,1.8,0,3.7,0,3.7s1.8-1,2.5-2.8s0-3.7,0-3.7S65.3,64.5,64.6,66.3z"/>
			<path class="st1" d="M67.8,68c-1.9,0.4-3.2,2-3.2,2s1.8,1,3.8,0.6c1.9-0.4,3.2-2,3.2-2S69.8,67.6,67.8,68z"/>
			<path class="st1" d="M68.1,61.9c-0.2,1.9,0.9,3.6,0.9,3.6s1.5-1.4,1.7-3.3c0.2-1.9-0.9-3.6-0.9-3.6S68.4,60,68.1,61.9z"/>
			<path class="st1" d="M71.7,62.8c-1.8,0.8-2.6,2.7-2.6,2.7s2,0.5,3.8-0.3s2.6-2.7,2.6-2.7S73.5,62,71.7,62.8z"/>
			<path class="st1" d="M70.7,57c0.2,1.9,1.6,3.4,1.6,3.4s1.2-1.7,1-3.6c-0.2-1.9-1.6-3.4-1.6-3.4S70.5,55.1,70.7,57z"/>
			<path class="st1" d="M74.3,57.2c-1.6,1.2-2.1,3.1-2.1,3.1s2.1,0.1,3.7-1c1.6-1.2,2.1-3.1,2.1-3.1S75.9,56.1,74.3,57.2z"/>
			<path class="st1" d="M72.1,52.1c0.5,1.9,2.2,3.1,2.2,3.1s0.9-1.8,0.5-3.7c-0.5-1.9-2.2-3.1-2.2-3.1S71.7,50.2,72.1,52.1z"/>
			<path class="st1" d="M75.8,51.7c-1.4,1.4-1.5,3.4-1.5,3.4s2.1-0.2,3.5-1.6c1.4-1.4,1.5-3.4,1.5-3.4S77.2,50.4,75.8,51.7z"/>
			<path class="st1" d="M72.3,46.8c0.9,1.7,2.8,2.5,2.8,2.5s0.4-2-0.5-3.7s-2.8-2.5-2.8-2.5S71.4,45.1,72.3,46.8z"/>
			<path class="st1" d="M75.8,45.6c-1,1.7-0.6,3.7-0.6,3.7s2-0.7,2.9-2.4c1-1.7,0.6-3.7,0.6-3.7S76.7,43.9,75.8,45.6z"/>
			<path class="st1" d="M71.2,41.3c1.3,1.5,3.4,1.8,3.4,1.8s-0.1-2-1.4-3.5s-3.4-1.8-3.4-1.8S69.9,39.8,71.2,41.3z"/>
			<path class="st1" d="M74.3,39.3c-0.6,1.9,0.3,3.7,0.3,3.7s1.7-1.1,2.3-3c0.6-1.9-0.3-3.7-0.3-3.7S74.9,37.4,74.3,39.3z"/>
			<path class="st1" d="M69.3,36.8c1.6,1.1,3.7,1,3.7,1s-0.5-2-2.1-3.1s-3.7-1-3.7-1S67.7,35.7,69.3,36.8z"/>
			<path class="st1" d="M71.8,34.2c-0.1,1.9,1.1,3.6,1.1,3.6s1.4-1.5,1.5-3.4s-1.1-3.6-1.1-3.6S72,32.3,71.8,34.2z"/>
			<path class="st1" d="M66.6,32.7c1.8,0.9,3.8,0.4,3.8,0.4s-0.8-1.9-2.6-2.7C66,29.5,64,30,64,30S64.9,31.9,66.6,32.7z"/>
			<path class="st1" d="M68.7,29.7c0.2,1.9,1.7,3.3,1.7,3.3s1.2-1.7,1-3.6s-1.7-3.3-1.7-3.3S68.5,27.8,68.7,29.7z"/>
			<path class="st1" d="M65.2,26.8c-0.1,0.1-0.2,0.2-0.3,0.3h-0.1c6.2,5.2,10.1,12.8,10.1,21.2c0,15.7-13.6,28.5-30.4,28.5
				S14.1,64,14.1,48.3c0-8,3.6-15.3,9.3-20.5c-0.2-0.1-0.3-0.1-0.5-0.2c-5.7,5.3-9.2,12.6-9.2,20.7c0,16,13.9,29,30.9,29
				s30.9-13,30.9-29C75.4,39.8,71.4,32.1,65.2,26.8z"/>
			<path class="st1" d="M26.4,28.9c-1.9,0.4-3.8-0.6-3.8-0.6s1.3-1.6,3.2-2c1.9-0.4,3.8,0.6,3.8,0.6S28.3,28.5,26.4,28.9z"/>
			<path class="st1" d="M25.1,25.5c-0.7,1.8-2.5,2.8-2.5,2.8s-0.7-1.9-0.1-3.7c0.7-1.8,2.4-2.8,2.4-2.8S25.7,23.7,25.1,25.5z"/>
			<path class="st1" d="M62.7,28.9c1.9,0.4,3.8-0.6,3.8-0.6s-1.3-1.6-3.2-2c-1.9-0.4-3.8,0.6-3.8,0.6S60.8,28.5,62.7,28.9z"/>
			<path class="st1" d="M64,25.5c0.7,1.8,2.5,2.8,2.5,2.8s0.7-1.9,0.1-3.7c-0.7-1.8-2.4-2.8-2.4-2.8S63.4,23.7,64,25.5z"/>
		</g>
	</g>
</g>
<path class="st4" d="M37.8,45.8c0.1-0.2,0.1-0.5,0.2-0.7c0.5-1.4,1.1-2.8,1.9-4.1c0.5-0.9,1-1.7,1.6-2.5c0.8-1.1,1.7-2.1,2.8-3
	c0.5-0.4,0.9-0.7,1.4-1.1l0.1-0.1c-0.1,0-0.1,0-0.2,0.1c-0.9,0.6-1.8,1.2-2.6,1.9c-1.4,1.1-2.8,2.4-3.9,3.8c-0.7,0.8-1.3,1.8-2,2.7
	c-0.3,0.4-0.5,1-0.8,1.5c-1.9-1.8-4.1-2.2-6.6-1.4c1.5-4,3.9-7,7.5-9c5.7-3.3,12.9-3.2,18.5,1c5,3.7,7.4,9.9,6.9,15.3
	c-2-1.4-4.1-1.6-6.3-0.6c0.1-1.7-0.2-3.2-0.5-4.8s-0.8-3.1-1.4-4.6c-0.6-1.5-1.3-2.9-2.1-4.2c0,0-0.1,0-0.1,0.1
	c0.2,0.3,0.4,0.7,0.5,1c0.7,1.5,1.1,3,1.4,4.6c0.3,1.6,0.4,3.1,0.5,4.7c0,1.2,0,2.3-0.2,3.5c0,0.1,0,0.2,0,0.4
	c-2.1-2.4-4.6-4-7.6-4.7C43.8,44.6,40.8,44.8,37.8,45.8C37.9,45.8,37.9,45.8,37.8,45.8z"/>
<path class="st4" d="M45,54.4L45,54.4c0.5-2.4,1.1-4.7,1.6-7.1c0-0.1,0-0.3-0.1-0.3c-0.4-0.4-0.9-0.5-1.4-0.4
	c-0.1,0-0.2,0.1-0.2,0.2c-0.1,0.4-0.2,0.8-0.2,1.2c-0.5,2.2-1,4.4-1.5,6.5l0,0c-0.5,2.4-1.1,4.7-1.6,7.1c0,0.1,0,0.3,0.1,0.3
	c0.4,0.4,0.9,0.5,1.4,0.4c0.1,0,0.2-0.1,0.2-0.2c0.1-0.4,0.2-0.8,0.2-1.2C44,58.8,44.5,56.6,45,54.4z"/>
<path class="st4" d="M55.3,65.8c0,0-13.9-10.9-30.9-0.8c0,0-0.5,0.4,0.2,0.4c0,0,14.5-7.4,30.5,0.8C55.1,66.2,55.6,66.2,55.3,65.8z"
	/>
<g>
	<path class="st1" d="M31.8,95.2v2.6h-9.1v-0.6c5.3-6.2,6-7.2,6-8.5c0-0.9-0.6-1.5-1.5-1.5c-0.9,0-1.5,0.6-1.5,1.5v0.2H23v-0.3
		c0-2.4,1.7-4.1,4.3-4.1c2.5,0,4.3,1.7,4.3,4.1c0,1.6-0.7,3-3.7,6.5H31.8z"/>
	<path class="st1" d="M33.9,91.3c0-4.2,2-6.7,5.3-6.7c3.2,0,5.2,2.6,5.2,6.7c0,4.1-2,6.7-5.2,6.7C35.9,98,33.9,95.4,33.9,91.3z
		 M41.6,91.3c0-2.7-0.9-4.2-2.4-4.2c-1.6,0-2.5,1.5-2.5,4.1c0,2.7,0.9,4.1,2.5,4.1C40.7,95.4,41.6,94,41.6,91.3z"/>
	<path class="st1" d="M55.2,95.2v2.6h-9.1v-0.6c5.3-6.2,6-7.2,6-8.5c0-0.9-0.6-1.5-1.5-1.5c-0.9,0-1.5,0.6-1.5,1.5v0.2h-2.8v-0.3
		c0-2.4,1.7-4.1,4.3-4.1c2.5,0,4.3,1.7,4.3,4.1c0,1.6-0.7,3-3.7,6.5H55.2z"/>
	<path class="st1" d="M63.1,89.6c1.9,0.4,3.2,2,3.2,4c0,2.5-1.9,4.4-4.6,4.4c-2.6,0-4.4-1.8-4.5-4.3H60c0.1,1.1,0.7,1.7,1.7,1.7
		c1.1,0,1.8-0.8,1.8-1.9s-0.8-1.8-2-1.8h-1.9v-0.5l2.4-3.9h-4.5v-2.5h8.3v0.5L63.1,89.6z"/>
</g>
</svg>
