<svg width="396" height="32" viewBox="0 0 396 32" fill="none" xmlns="http://www.w3.org/2000/svg">
<path d="M34.1172 24.2935C34.1172 22.3407 35.5688 21.0273 37.3488 21.0273C38.4548 21.0273 39.2324 21.5112 39.8027 22.2024L39.1806 22.5826C38.7831 22.0815 38.1092 21.7186 37.3661 21.7186C35.9836 21.7186 34.9467 22.7727 34.9467 24.2762C34.9467 25.7624 36.0009 26.8511 37.3661 26.8511C38.1264 26.8511 38.7486 26.4882 39.0596 26.1771V24.8983H36.8995V24.2071H39.8546V26.4882C39.267 27.1449 38.4029 27.5769 37.3834 27.5769C35.5688 27.5596 34.1172 26.2462 34.1172 24.2935Z" fill="#4A5568"/>
<path d="M46.5252 27.4387L44.9181 24.9329H43.6565V27.4387H42.8789V21.1484H45.4019C46.5598 21.1484 47.372 21.8914 47.372 23.0493C47.372 24.1898 46.5943 24.812 45.7303 24.8811L47.4238 27.456H46.5252V27.4387ZM46.5771 23.032C46.5771 22.3235 46.0586 21.8396 45.3155 21.8396H43.6565V24.2417H45.3155C46.0759 24.2417 46.5771 23.7405 46.5771 23.032Z" fill="#4A5568"/>
<path d="M49.9126 24.2934C49.9126 22.4271 51.1741 21.0273 53.0405 21.0273C54.9069 21.0273 56.1684 22.4271 56.1684 24.2934C56.1684 26.1598 54.9069 27.5596 53.0405 27.5596C51.1568 27.5596 49.9126 26.1598 49.9126 24.2934ZM55.3389 24.2934C55.3389 22.8245 54.4403 21.7358 53.0232 21.7358C51.6062 21.7358 50.7075 22.8245 50.7075 24.2934C50.7075 25.7624 51.6062 26.8511 53.0232 26.8511C54.4403 26.8511 55.3389 25.7624 55.3389 24.2934Z" fill="#4A5568"/>
<path d="M58.605 24.9848V21.1484H59.3827V24.9848C59.3827 26.1426 60.0048 26.8684 61.1626 26.8684C62.3205 26.8684 62.9426 26.1426 62.9426 24.9848V21.1484H63.7202V24.9848C63.7202 26.5574 62.8562 27.5597 61.1453 27.5597C59.4691 27.5597 58.605 26.5401 58.605 24.9848Z" fill="#4A5568"/>
<path d="M66.8652 27.4387V21.1484H69.3883C70.6498 21.1484 71.3583 22.0124 71.3583 23.0493C71.3583 24.0862 70.6325 24.9502 69.3883 24.9502H67.6429V27.4387H66.8652ZM70.5461 23.032C70.5461 22.3235 70.045 21.8396 69.2846 21.8396H67.6256V24.2417H69.2846C70.045 24.2417 70.5461 23.7405 70.5461 23.032Z" fill="#4A5568"/>
<path d="M12.0494 4.80078H6.96875V9.88145H12.0494V4.80078Z" fill="#4A5568"/>
<path d="M18.8579 16.1891L14.4512 4.80078H17.2162L20.3787 13.5624L23.5238 4.80078H26.2888L21.8994 16.1891H18.8579Z" fill="#4A5568"/>
<path d="M35.3623 16.1891L29.936 8.75818V16.1891H27.5166V4.80078H30.0051L35.2759 11.9552V4.80078H37.6952V16.1891H35.3623Z" fill="#4A5568"/>
<path d="M38.9219 6.92637H42.2571V16.1891H44.6938V4.80078H38.9219V6.92637Z" fill="#4A5568"/>
<path d="M55.6327 16.1891L53.4035 12.1453H51.6235V16.1891H49.2041V4.80078H54.5267C56.8943 4.80078 58.3459 6.35609 58.3459 8.4644C58.3459 10.4863 57.0843 11.5578 55.8574 11.8515L58.415 16.1891H55.6327ZM55.8747 8.4644C55.8747 7.51393 55.1316 6.92637 54.1638 6.92637H51.6235V10.0025H54.1638C55.1489 10.0025 55.8747 9.43214 55.8747 8.4644Z" fill="#4A5568"/>
<path d="M68.0924 16.1891L67.3838 14.2536H62.4932L61.7674 16.1891H59.0024L63.4437 4.80078H66.4852L70.8746 16.1891H68.0924ZM64.9645 7.22015L63.1845 12.128H66.7444L64.9645 7.22015Z" fill="#4A5568"/>
<path d="M73.4321 16.1891L69.0254 4.80078H71.7904L74.9528 13.5624L78.098 4.80078H80.863L76.4736 16.1891H73.4321Z" fill="#4A5568"/>
<path d="M82.021 16.1891V4.80078H90.0741V6.92637H84.4404V9.32846H89.9531V11.4541H84.4404V14.029H90.0741V16.1718H82.021V16.1891Z" fill="#4A5568"/>
<path d="M92.5278 16.1891V4.80078H94.9471V14.0635H99.7686V16.2064H92.5278V16.1891Z" fill="#4A5568"/>
<path d="M12.0494 11.1074H6.96875V16.188H12.0494V11.1074Z" fill="#4A5568"/>
<path d="M47.9942 4.80078H45.8687V6.92637H47.9942V4.80078Z" fill="#4A5568"/>
<path d="M114.419 1V31" stroke="#4A5568" stroke-width="0.5"/>
<path d="M159.419 9.53821V11.1535C159.419 11.3789 159.236 11.562 159.01 11.562H157.386C157.16 11.562 156.977 11.7452 156.977 11.9705V20.0845C156.977 20.3098 156.794 20.493 156.568 20.493H154.934C154.709 20.493 154.526 20.3098 154.526 20.0845V11.9658C154.526 11.7405 154.343 11.5573 154.117 11.5573H152.502C152.277 11.5573 152.094 11.3742 152.094 11.1488V9.53351C152.094 9.30813 152.277 9.125 152.502 9.125H159.001C159.236 9.13439 159.419 9.31752 159.419 9.53821Z" fill="#4A5568"/>
<path d="M165.917 13.6057V14.418C165.917 14.6434 165.734 14.8265 165.509 14.8265H163.884C163.659 14.8265 163.476 14.6434 163.476 14.418C163.476 14.1926 163.293 14.0095 163.067 14.0095H162.255C162.029 14.0095 161.846 14.1926 161.846 14.418V20.0808C161.846 20.3062 161.663 20.4893 161.438 20.4893H159.813C159.588 20.4893 159.405 20.3062 159.405 20.0808V12.7933C159.405 12.5679 159.588 12.3848 159.813 12.3848H164.687C165.373 12.3848 165.917 12.9295 165.917 13.6057Z" fill="#4A5568"/>
<path d="M182.169 12.7933V20.0808C182.169 20.3062 181.986 20.4893 181.76 20.4893H180.126C179.901 20.4893 179.718 20.3062 179.718 20.0808V12.7933C179.718 12.5679 179.901 12.3848 180.126 12.3848H181.76C181.99 12.3848 182.169 12.5679 182.169 12.7933Z" fill="#4A5568"/>
<path d="M176.896 12.3848H171.205C170.979 12.3848 170.796 12.5679 170.796 12.7933V23.3442C170.796 23.5696 170.979 23.7527 171.205 23.7527H172.825C173.05 23.7527 173.233 23.5696 173.233 23.3442V20.9072C173.233 20.6819 173.416 20.4987 173.642 20.4987H176.9C177.572 20.4987 178.121 19.954 178.121 19.2779V13.6057C178.117 12.9295 177.572 12.3848 176.896 12.3848ZM175.68 18.4656C175.68 18.6909 175.496 18.8741 175.271 18.8741H173.637C173.412 18.8741 173.228 18.6909 173.228 18.4656V14.4133C173.228 14.1879 173.412 14.0048 173.637 14.0048H175.271C175.496 14.0048 175.68 14.1879 175.68 14.4133V18.4656Z" fill="#4A5568"/>
<path d="M169.176 12.7933V20.0808C169.176 20.3062 168.993 20.4893 168.768 20.4893H167.133C166.908 20.4893 166.725 20.3062 166.725 20.0808V12.7933C166.725 12.5679 166.908 12.3848 167.133 12.3848H168.768C168.993 12.3848 169.176 12.5679 169.176 12.7933Z" fill="#4A5568"/>
<path d="M169.176 9.53937V10.3376C169.176 10.563 168.993 10.7461 168.768 10.7461H167.133C166.908 10.7461 166.725 10.563 166.725 10.3376V9.53937C166.725 9.31399 166.908 9.13086 167.133 9.13086H168.768C168.993 9.13556 169.176 9.31868 169.176 9.53937Z" fill="#4A5568"/>
<path d="M182.169 9.53937V10.3376C182.169 10.563 181.986 10.7461 181.76 10.7461H180.126C179.901 10.7461 179.718 10.563 179.718 10.3376V9.53937C179.718 9.31399 179.901 9.13086 180.126 9.13086H181.76C181.99 9.13556 182.169 9.31868 182.169 9.53937Z" fill="#4A5568"/>
<path d="M146.557 8.59101C145.454 7.62842 144.125 7.10252 142.787 7.00391C143.759 8.55814 144.163 10.4645 143.754 12.3756L143.75 12.3944C143.735 12.4648 143.717 12.5446 143.693 12.6338C143.618 12.925 143.529 13.2067 143.421 13.479C142.707 15.3995 141.134 17.9868 139.322 20.2219C138.26 21.5319 136.871 23.0251 135.589 23.7435C138.5 23.49 144.022 20.8182 146.557 18.5831C146.759 18.4094 146.952 18.2216 147.135 18.0196C147.191 17.9586 147.248 17.8976 147.295 17.8365C149.61 15.1084 149.281 10.9669 146.557 8.59101Z" fill="#4A5568"/>
<path d="M138.049 4.41597C134.532 3.60833 131.072 5.79176 130.325 9.29464C130.311 9.36977 130.292 9.4496 130.283 9.53412C130.236 9.80646 130.203 10.0788 130.194 10.3512C129.921 14.5725 131.936 22.9822 133.992 23.4517C136.054 23.926 141.303 17.1785 142.768 13.2295C142.867 12.9807 142.947 12.7271 143.012 12.4595C143.031 12.3796 143.055 12.2998 143.069 12.2247C143.815 8.72179 141.571 5.2236 138.049 4.41597ZM136.101 18.7844C136.354 18.944 136.927 18.9111 137.246 18.7609C137.246 18.7609 137.209 19.2445 137.007 19.6718C136.645 20.456 135.462 21.0711 134.274 20.6626C132.955 20.2024 132.917 18.6153 133.049 17.8546C133.18 17.0893 134.359 11.5814 134.359 11.5814C134.622 10.4967 135.34 9.67498 136.537 9.64212C136.894 9.64212 137.209 9.7595 137.528 9.91915C137.528 9.91915 136.021 17.0235 135.903 17.5776C135.838 17.8922 135.725 18.5449 136.101 18.7844ZM136.673 8.73587C135.894 8.73587 135.265 8.10667 135.265 7.32721C135.265 6.54775 135.894 5.91854 136.673 5.91854C137.453 5.91854 138.082 6.54775 138.082 7.32721C138.082 8.10197 137.453 8.73587 136.673 8.73587Z" fill="#4A5568"/>
<path d="M273.54 11.8188C272.454 10.7599 271.096 10.2168 269.467 10.2168C267.838 10.2168 266.48 10.7599 265.422 11.8188C264.336 12.8777 263.792 14.2352 263.792 15.8372C263.792 17.4391 264.336 18.7966 265.422 19.8555C266.508 20.9144 267.838 21.4575 269.467 21.4575C271.096 21.4575 272.454 20.9144 273.54 19.8555C274.626 18.7966 275.169 17.4662 275.169 15.8372C275.169 14.2352 274.626 12.9048 273.54 11.8188ZM269.494 18.5523C268.001 18.5523 266.779 17.3305 266.779 15.8372C266.779 14.3438 268.001 13.122 269.494 13.122C270.988 13.122 272.209 14.3438 272.209 15.8372C272.182 17.3305 270.988 18.5523 269.494 18.5523Z" fill="#4A5568"/>
<path d="M221.545 6.2793H218.559V10.8407C217.771 10.4335 216.848 10.2163 215.843 10.2163C214.214 10.2163 212.857 10.7593 211.798 11.8182C210.712 12.8771 210.169 14.2346 210.169 15.8366C210.169 17.4656 210.712 18.7961 211.798 19.855C212.884 20.9138 214.214 21.4569 215.843 21.4569C217.472 21.4569 218.83 20.9138 219.916 19.855C221.002 18.7961 221.545 17.4656 221.545 15.8366V6.2793ZM215.843 18.5517C214.35 18.5517 213.128 17.3299 213.128 15.8366C213.128 14.3432 214.35 13.1214 215.843 13.1214C217.337 13.1214 218.559 14.3432 218.559 15.8366C218.559 17.3299 217.364 18.5517 215.843 18.5517Z" fill="#4A5568"/>
<path d="M262.788 15.5656C262.788 15.5113 262.788 15.457 262.788 15.4027C262.788 15.3484 262.788 15.2941 262.761 15.2398C262.761 15.1584 262.734 15.0769 262.734 14.9955C262.734 14.9412 262.707 14.914 262.707 14.8597C262.707 14.8054 262.68 14.7783 262.68 14.7239C262.49 13.5836 261.974 12.6333 261.159 11.8188C260.318 11.0042 259.34 10.4884 258.2 10.2983H258.173C258.091 10.2711 258.01 10.2711 257.928 10.2711C257.765 10.244 257.603 10.244 257.412 10.2168C257.331 10.2168 257.277 10.2168 257.195 10.2168H257.114C255.485 10.2168 254.127 10.7599 253.068 11.8188C251.982 12.8777 251.439 14.2352 251.439 15.8372C251.439 17.4391 251.982 18.7966 253.068 19.8555C254.154 20.9144 255.485 21.4575 257.114 21.4575C258.037 21.4575 258.852 21.2946 259.612 20.9416C259.422 22.3535 258.58 23.0594 257.114 23.0594C256.191 23.0594 255.593 22.7064 255.295 22.0276H251.656C251.738 22.5978 251.955 23.1408 252.308 23.6567C252.797 24.3626 253.476 24.9057 254.317 25.2586C255.077 25.5573 255.919 25.7202 256.897 25.7202C257.956 25.7202 258.933 25.5301 259.883 25.15C260.942 24.7156 261.73 24.0911 262.218 23.2494C262.49 22.7879 262.68 22.2177 262.761 21.5661C262.788 21.2946 262.816 20.9959 262.843 20.6701C262.843 20.5343 262.843 20.3986 262.843 20.2357V15.8372C262.788 15.7285 262.788 15.6471 262.788 15.5656ZM257.168 18.5251C255.675 18.5251 254.453 17.3033 254.453 15.81C254.453 14.3167 255.675 13.0949 257.168 13.0949C258.661 13.0949 259.883 14.3167 259.883 15.81C259.883 17.3033 258.661 18.5251 257.168 18.5251Z" fill="#4A5568"/>
<path d="M242.505 14.9941C242.152 14.9941 241.881 15.2656 241.881 15.6185C241.881 15.9715 242.152 16.243 242.505 16.243C242.858 16.243 243.13 15.9715 243.13 15.6185C243.13 15.2656 242.858 14.9941 242.505 14.9941Z" fill="#4A5568"/>
<path d="M244.814 10.1895C241.664 10.1895 239.112 12.7146 239.112 15.837C239.112 17.7647 240.089 19.4753 241.583 20.507C241.691 19.6925 241.718 18.9865 241.718 18.9865C241.718 18.9865 240.931 17.8733 240.469 16.1899C240.008 14.5066 243.836 12.7146 245.492 12.2802C247.149 11.8457 247.827 13.8549 247.827 13.8549L247.909 14.0993L247.284 13.8821L247.393 14.6423L246.687 14.398L246.796 15.0496L246.144 14.7781L246.28 15.4569L245.655 15.2125L245.818 15.8098L245.139 15.7012L244.325 16.4343L245.357 16.8687L245.71 16.4343L246.253 16.923L246.551 16.4343L247.04 16.8687L247.393 16.3529L247.8 16.733L248.153 16.1899C248.153 16.1899 248.398 16.6515 248.017 17.4932C247.61 18.3349 244.515 19.258 244.515 19.258C244.786 19.5839 244.976 19.9368 245.139 20.2626C245.139 20.2898 245.167 20.3169 245.167 20.3441C245.329 20.1812 245.791 19.7739 246.198 19.9097C246.198 19.9097 246.497 19.9911 246.687 20.3441L246.416 20.2898V20.5341L246.144 20.4255L246.171 20.6699L245.872 20.5341L245.465 21.2401C245.492 21.3215 245.492 21.3758 245.492 21.4573C248.316 21.1043 250.488 18.7422 250.488 15.837C250.488 12.7146 247.936 10.1895 244.814 10.1895Z" fill="#4A5568"/>
<path d="M225.699 10.2168H222.549V21.4575H225.699V10.2168Z" fill="#4A5568"/>
<path d="M224.124 9.42885C224.994 9.42885 225.699 8.7238 225.699 7.85408C225.699 6.98435 224.994 6.2793 224.124 6.2793C223.254 6.2793 222.549 6.98435 222.549 7.85408C222.549 8.7238 223.254 9.42885 224.124 9.42885Z" fill="#4A5568"/>
<path d="M236.479 11.8188C236.262 11.6016 236.044 11.4386 235.827 11.2757C234.877 10.5698 233.737 10.2168 232.406 10.2168C231.076 10.2168 229.963 10.5698 229.012 11.2757C228.795 11.4386 228.578 11.6287 228.361 11.8188C227.275 12.8777 226.732 14.2352 226.732 15.8372V21.4575H229.718V20.8601V16.0544V15.6199C229.827 14.2352 230.994 13.1492 232.406 13.1492C233.818 13.1492 234.985 14.2352 235.094 15.6199V16.0544V20.833V21.4575H238.081V15.8372C238.108 14.2352 237.565 12.9048 236.479 11.8188Z" fill="#4A5568"/>
<path d="M308.479 9.32491C310.756 9.32491 312.361 11.0777 312.361 13.5874V20.3396H311.124C310.168 20.3396 309.394 19.5799 309.394 18.6426V14.0654C309.394 12.6313 308.805 11.8744 307.727 11.8744C306.406 11.8744 305.634 12.8305 305.634 14.5235V20.3396H302.728V14.0654C302.728 12.6313 302.179 11.8744 301.122 11.8744C299.78 11.8744 298.967 12.8305 298.967 14.5235V20.3396H296V9.58384H298.073L298.622 10.9184C299.415 9.96229 300.614 9.32491 301.915 9.32491C303.297 9.32491 304.455 9.96229 305.085 11.0578C305.837 10.0021 307.097 9.32491 308.479 9.32491Z" fill="#4A5568"/>
<path d="M321.276 9.58385H324.446L319.65 20.2002C318.349 23.1083 317.19 24.2237 314.711 24.2237H313.491V21.5945H314.528C315.951 21.5945 316.235 21.1961 317.007 19.6027L317.048 19.523L312.394 9.58385H315.625L318.552 16.1967L321.276 9.58385Z" fill="#4A5568"/>
<path d="M331.299 17.7503H332.641V20.3396H330.547C328.129 20.3396 326.645 18.8856 326.645 16.4954V11.9143H325.103C324.855 11.9143 324.653 11.7164 324.653 11.4724C324.653 11.3596 324.697 11.2511 324.776 11.1691L328.889 6.89337C328.962 6.81807 329.062 6.77539 329.168 6.77539C329.38 6.77539 329.551 6.94384 329.551 7.15162V9.58385H332.58V11.9143H329.612V16.117C329.612 17.1527 330.222 17.7503 331.299 17.7503Z" fill="#4A5568"/>
<path d="M339.791 20.6384C336.377 20.6384 333.856 18.2084 333.856 14.9617C333.856 11.6952 336.377 9.28508 339.791 9.28508C343.165 9.28508 345.706 11.6952 345.706 14.9617C345.706 18.2084 343.165 20.6384 339.791 20.6384ZM339.791 17.9096C341.498 17.9096 342.698 16.6946 342.698 14.9617C342.698 13.2289 341.498 12.0139 339.791 12.0139C338.064 12.0139 336.864 13.2289 336.864 14.9617C336.864 16.6946 338.064 17.9096 339.791 17.9096Z" fill="#4A5568"/>
<path d="M352.434 20.6384C349.324 20.6384 347.272 18.7063 347.272 15.7983V9.58385H350.239V15.4597C350.239 16.9934 351.052 17.9096 352.434 17.9096C353.796 17.9096 354.609 16.9735 354.609 15.4597V9.58385H357.576V15.7983C357.576 18.7063 355.544 20.6384 352.434 20.6384Z" fill="#4A5568"/>
<path d="M364.804 9.52409H365.78V12.2728H364.5C362.833 12.2728 362.162 12.9898 362.162 14.7426V20.3396H359.195V9.58385H361.105L361.634 10.8984C362.406 9.94237 363.402 9.52409 364.804 9.52409Z" fill="#4A5568"/>
<path d="M367.692 20.3396C366.822 20.3396 366.117 19.6396 366.117 18.786C366.117 17.9324 366.822 17.2324 367.692 17.2324C368.562 17.2324 369.267 17.9324 369.267 18.786C369.267 19.6396 368.562 20.3396 367.692 20.3396Z" fill="#4A5568"/>
<path d="M378.021 9.58385H381.11L376.74 20.3396H373.997L369.545 9.58385H372.696L375.399 16.7942L378.021 9.58385Z" fill="#4A5568"/>
<path d="M388.955 9.32491C391.455 9.32491 393 11.0976 393 13.8264V20.3396H391.762C390.807 20.3396 390.033 19.5799 390.033 18.6426V14.2845C390.033 12.6712 389.403 11.8744 388.122 11.8744C386.598 11.8744 385.663 12.95 385.663 14.6829V20.3396H382.695V9.58385H384.728L385.317 10.9184C386.151 9.94237 387.451 9.32491 388.955 9.32491Z" fill="#4A5568"/>
</svg>
